<svg xmlns="http://www.w3.org/2000/svg" viewBox="0 0 64 64" role="img" aria-labelledby="title">
  <title id="title">Kongo stacked data mark</title>
  <rect width="64" height="64" rx="14" fill="#0f172a"/>
  <path d="M12 17c0-5 9-9 20-9s20 4 20 9-9 9-20 9-20-4-20-9Z" fill="#6ee7b7"/>
  <path d="M12 27c4.2 4.2 11.5 6.5 20 6.5s15.8-2.3 20-6.5v8c0 5-9 9-20 9s-20-4-20-9v-8Z" fill="#38bdf8"/>
  <path d="M12 45c4.2 4.2 11.5 6.5 20 6.5S47.8 49.2 52 45v2c0 5-9 9-20 9s-20-4-20-9v-2Z" fill="#6ee7b7"/>
  <path d="M12 37c4.2 4.2 11.5 6.5 20 6.5S47.8 41.2 52 37v6c0 5-9 9-20 9s-20-4-20-9v-6Z" fill="#0ea5e9" opacity=".72"/>
</svg>
